<svg xmlns="http://www.w3.org/2000/svg" xml:space="preserve" viewBox="0 139.3 512.2 233.5"><path d="M256 139.3c-53 0-97.9 35.8-112.1 84.4-12.2-25.5-38.2-43.4-68.2-43.4C34.2 180.2 0 214.4 0 256s34.2 75.8 75.8 75.8c30 0 55.9-17.9 68.2-43.4 14.1 48.6 59.1 84.4 112.1 84.4S354 337 368.2 288.4c12.2 25.5 38.2 43.4 68.2 43.4 41.6 0 75.8-34.2 75.8-75.8s-34.2-75.8-75.8-75.8c-30 0-55.9 17.9-68.2 43.4-14.3-48.5-59.2-84.3-112.2-84.3m0 45c39.9 0 71.7 31.8 71.7 71.7s-31.8 71.7-71.7 71.7-71.7-31.8-71.7-71.7 31.8-71.7 71.7-71.7m-180.2 41c17.2 0 30.7 13.5 30.7 30.7S93 286.7 75.8 286.7 45.1 273.2 45.1 256s13.4-30.7 30.7-30.7m360.4 0c17.2 0 30.7 13.5 30.7 30.7s-13.5 30.7-30.7 30.7-30.7-13.5-30.7-30.7 13.5-30.7 30.7-30.7" style="fill:#3784c9"/></svg>