<?xml version="1.0" encoding="UTF-8" standalone="no"?>
<!-- Created with Inkscape (http://www.inkscape.org/) -->

<svg
   width="64mm"
   height="64mm"
   viewBox="0 0 64 64"
   version="1.1"
   id="svg5"
   inkscape:version="1.2-alpha1 (b6a15bbbed, 2022-02-23)"
   sodipodi:docname="vgmdb.svg"
   xmlns:inkscape="http://www.inkscape.org/namespaces/inkscape"
   xmlns:sodipodi="http://sodipodi.sourceforge.net/DTD/sodipodi-0.dtd"
   xmlns="http://www.w3.org/2000/svg"
   xmlns:svg="http://www.w3.org/2000/svg">
  <sodipodi:namedview
     id="namedview7"
     pagecolor="#ffffff"
     bordercolor="#000000"
     borderopacity="0.25"
     inkscape:pageshadow="2"
     inkscape:pageopacity="0.0"
     inkscape:pagecheckerboard="0"
     inkscape:deskcolor="#d1d1d1"
     inkscape:document-units="mm"
     showgrid="false"
     inkscape:zoom="2.1089995"
     inkscape:cx="96.017091"
     inkscape:cy="132.29021"
     inkscape:window-width="1920"
     inkscape:window-height="1017"
     inkscape:window-x="1912"
     inkscape:window-y="456"
     inkscape:window-maximized="1"
     inkscape:current-layer="layer1" />
  <defs
     id="defs2" />
  <g
     inkscape:label="Layer 1"
     inkscape:groupmode="layer"
     id="layer1">
    <path
       style="fill:#000000;stroke-width:0.21854"
       d="m 24.915135,62.650271 c 0.887879,-1.778597 2.041345,-3.66055 2.243584,-3.66055 0.373389,0 3.112623,2.34553 4.058216,3.474939 l 0.933036,1.114407 h -3.849247 -3.849246 z m 12.769897,0.133716 c 0.188983,-1.699691 0.540579,-9.438559 0.541952,-11.928786 l 0.0013,-2.561742 1.233546,-0.358603 c 1.858993,-0.540424 4.864719,-0.351614 6.306093,0.396126 2.102595,1.090761 3.373658,3.018391 3.382575,5.129841 0.0167,3.956206 -2.25508,7.722455 -5.608397,9.297806 -1.304436,0.612809 -1.766356,0.710219 -3.720191,0.784508 l -2.230831,0.08482 0.09384,-0.843972 z M 15.28167,58.692354 C 13.855849,58.372721 13.307133,58.098082 12.027965,57.063833 10.767623,56.044804 9.571224,54.160633 8.9251418,52.177293 8.4791686,50.808245 8.4074221,50.178438 8.4306037,47.836119 8.5286648,37.927793 11.975024,28.061437 18.601259,18.719217 c 1.935825,-2.729288 2.971061,-3.715223 4.909347,-4.675547 2.754154,-1.364545 6.425257,-1.245307 7.097695,0.230534 0.528157,1.159175 -0.351225,2.928281 -5.658254,11.38306 -3.70676,5.905347 -6.114927,9.18009 -8.52131,11.587702 l -1.747431,1.748322 0.748093,2.185403 c 1.052426,3.074452 2.737855,6.406887 3.730724,7.376398 l 0.831803,0.812233 1.792285,-1.012255 c 0.985756,-0.556742 3.87521,-2.58299 6.421008,-4.502779 l 4.628722,-3.490523 -0.152738,4.29269 c -0.08401,2.36098 -0.222472,4.480622 -0.3077,4.710314 -0.332428,0.895893 -8.050465,7.1666 -10.09734,8.203831 -2.185833,1.107645 -5.028822,1.564407 -6.994493,1.123754 z m 12.832756,-0.03877 c -0.369353,-0.206871 -0.546974,-0.44325 -0.453135,-0.603036 0.708434,-1.206309 4.008342,-5.172791 4.307161,-5.177197 0.225634,-0.0033 -0.01427,3.110825 -0.312679,4.058824 -0.487124,1.547514 -2.288476,2.42313 -3.541347,1.721409 z M 54.400377,47.270961 c -2.064993,-1.073365 -4.152108,-1.442529 -8.74161,-1.546198 -3.114822,-0.07036 -4.685696,-0.01346 -5.837847,0.211437 l -1.576311,0.307699 -0.101497,-0.893553 C 38.087288,44.858893 37.933571,42.73579 37.801516,40.63234 l -0.240099,-3.824455 0.497396,-0.409308 c 3.74237,-3.079615 11.651909,-7.818064 15.417757,-9.236475 2.486857,-0.936679 2.235049,-2.072647 2.235049,10.082864 0,5.829561 -0.07376,10.585246 -0.163906,10.568187 -0.09015,-0.01705 -0.606449,-0.261044 -1.147336,-0.542192 z M 23.409747,36.75325 c 0.981959,-3.570355 4.756318,-11.031164 6.826933,-13.49486 0.464503,-0.552684 0.586271,-0.604153 0.775553,-0.327811 0.553602,0.808232 1.251919,4.110924 1.621318,7.668016 l 0.126807,1.221076 -3.079512,1.795215 c -1.693731,0.987367 -3.814306,2.281815 -4.71239,2.876551 -0.898084,0.594738 -1.666906,1.081339 -1.708492,1.081339 -0.04159,0 0.02582,-0.368786 0.149783,-0.819526 z m 13.184647,-7.110817 c -0.04629,-0.145705 -0.341909,-1.543377 -0.656926,-3.10594 -0.315019,-1.562562 -0.864147,-3.967401 -1.220285,-5.344086 l -0.647526,-2.503063 1.150575,-1.176622 c 0.632814,-0.647143 2.643448,-2.301196 4.468071,-3.675673 3.438183,-2.589963 4.301443,-3.419286 4.80161,-4.6128516 0.714642,-1.7053778 -0.03157,-3.7643498 -1.67217,-4.613896 -0.898369,-0.4651992 -1.181912,-0.4997701 -3.278104,-0.3996832 -2.190425,0.1045861 -4.050576,0.523224 -8.85088,1.9919437 l -1.092702,0.334327 0.546351,-0.4412242 c 6.292255,-5.0815261 14.525967,-6.98424479 19.646997,-4.540202 2.438424,1.163752 4.050578,3.1575295 5.198539,6.4291158 l 0.605044,1.7243152 0.0047,7.3023343 0.0047,7.302333 -2.622483,0.481857 c -4.702423,0.864027 -9.663403,2.365904 -14.706862,4.452327 -1.118146,0.462565 -1.619586,0.580467 -1.67861,0.394688 z"
       id="path6625" />
  </g>
</svg>
